<svg xmlns="http://www.w3.org/2000/svg" viewBox="0 0 64 64">
  <rect width="64" height="64" rx="12" fill="#0b5cad"/>
  <svg x="9" y="13" width="46" height="38" viewBox="270 250 705 445" preserveAspectRatio="xMidYMid meet">
    <path fill="#ffffff" d="M497.67,681.25C483.78,668.09 446.48,634.2 406.5,598.43C380.15,574.85 335.65,535.91 303.27,508.11C288.3,495.25 275.77,483.86 275.43,482.79C274.06,478.47 278.71,473 283.74,473C286.2,473 359.74,498.56 422.98,521.4C435.89,526.06 446.55,529.79 446.66,529.68C446.91,529.42 443.86,520.77 421.69,459C386.67,361.39 383.08,351.36 368.06,309.17C359.78,285.88 353,265.93 353,264.84C353,262.09 358.34,256.99 361.17,257.04C362.45,257.05 364.47,257.62 365.67,258.29C367.67,259.41 391.78,281.14 438.49,323.91C469.26,352.1 490.58,371.93 529.96,409.01C572.73,449.27 575.99,452.2 576.48,450.86C576.76,450.11 582.35,433.52 588.9,414C626.5,301.95 636.08,274.45 638.12,272.75C640.81,270.51 643.2,270.53 646.03,272.83C647.27,273.83 660.26,298.5 674.89,327.64C731.01,439.4 745.52,467.98 746.15,467.99C746.77,468 776.09,425.52 816.7,365.75C827.26,350.21 837.04,336.52 838.43,335.31C839.82,334.11 842.88,332.89 845.23,332.59C860.99,330.62 903.67,326.95 905.51,327.41C906.75,327.72 910.21,331.02 913.2,334.74C926.74,351.56 970.81,409.82 971.4,411.69C972.35,414.68 970.2,418.67 966.91,420.04C964.63,420.98 963.22,420.91 959.79,419.67C898.41,397.65 888.44,394.27 887.85,395.33C887.5,395.97 882.41,410 876.54,426.5C870.67,443 864.96,458.98 863.85,462C857.2,480.09 801.69,637.01 793.8,660C786.61,680.95 784.66,684.53 778.8,687.59C776.51,688.78 755.34,689 640.98,689L505.85,689L497.67,681.25ZM760.33,671.6C759.33,670.28 750.17,658.93 740,646.37C706.27,604.76 686.78,580.59 681.11,573.32C678.02,569.37 675.22,566.1 674.88,566.07C674.24,566 650.09,582.93 597.5,620.34C580.45,632.46 557.05,649.11 545.5,657.32C533.95,665.54 524.07,672.65 523.55,673.13C523.01,673.62 574.33,674 642.38,674L762.17,674L760.33,671.6ZM784.8,642.5C789.24,629.85 804.42,586.88 818.53,547C832.63,507.12 851.3,454.25 860.01,429.5C868.71,404.75 879.08,375.36 883.03,364.2C886.99,353.03 889.97,343.64 889.65,343.32C888.91,342.57 848.71,346.88 847.85,347.8C847.12,348.58 836.08,364.62 783.67,441C739.61,505.23 701.51,560.4 698.24,564.72C696.91,566.49 695.97,568.36 696.16,568.88C696.47,569.74 715.37,593.26 724,603.53C725.92,605.82 738.3,621.01 751.5,637.29C764.7,653.57 775.77,666.58 776.11,666.2C776.44,665.81 780.35,655.15 784.8,642.5ZM522.75,655.68C529.25,651.1 549.85,636.39 568.53,623C587.22,609.61 615.55,589.32 631.5,577.91C647.45,566.5 661.33,556.54 662.34,555.78C664.42,554.21 666.63,556.53 631.5,523.38C595.64,489.54 451,355.44 430.47,337C424.15,331.32 395.5,305.01 381.75,292.27C379.14,289.85 377,288.31 377,288.86C377,289.41 381.77,303.28 387.59,319.68C393.42,336.08 399.67,353.77 401.47,359C404.5,367.76 428.22,433.99 434.96,452.5C436.57,456.9 440.41,467.7 443.5,476.5C446.59,485.3 452.45,501.73 456.52,513C470.86,552.75 492.31,612.8 501.26,638.25C506.23,652.41 510.45,664 510.62,664C510.79,664 516.25,660.25 522.75,655.68ZM486.34,639.75C483.37,631.36 474.85,607.37 467.41,586.43L453.86,548.36L402.18,529.48C331.2,503.56 315.87,498.13 316.21,499.07C316.37,499.51 327.98,509.86 342,522.06C374.51,550.33 419.65,590.27 445.93,614C478.75,643.64 491.39,655 491.57,655C491.65,655 489.3,648.14 486.34,639.75ZM736,482.92C736,481.84 650.87,312.24 646.22,304.06C643.73,299.69 643.67,299.65 642.74,302.06C641.01,306.48 621.09,363.63 603.88,413.5L586.97,462.5L591.23,466.46C593.58,468.64 611.02,485.09 630,503.03C648.98,520.96 669.43,540.15 675.46,545.66L686.42,555.68L711.21,519.84C724.84,500.12 736,483.51 736,482.92ZM936.81,388.21C920.52,367.06 905.49,348.08 905,348.05C903.97,347.97 893.58,380.36 894.52,380.72C897.21,381.74 944.54,398.89 944.81,398.94C944.98,398.97 941.38,394.14 936.81,388.21Z"/>
  </svg>
</svg>
