<svg xmlns="http://www.w3.org/2000/svg" viewBox="0 0 900 300" fill="#111111">
  <!-- Horizontal brand lockup: folding-paper crane + JPMethod wordmark (B&W). -->
  <!-- crane -->
  <svg x="0" y="15" width="300" height="270" viewBox="270 250 705 445" preserveAspectRatio="xMidYMid meet">
    <path d="M497.67,681.25C483.78,668.09 446.48,634.2 406.5,598.43C380.15,574.85 335.65,535.91 303.27,508.11C288.3,495.25 275.77,483.86 275.43,482.79C274.06,478.47 278.71,473 283.74,473C286.2,473 359.74,498.56 422.98,521.4C435.89,526.06 446.55,529.79 446.66,529.68C446.91,529.42 443.86,520.77 421.69,459C386.67,361.39 383.08,351.36 368.06,309.17C359.78,285.88 353,265.93 353,264.84C353,262.09 358.34,256.99 361.17,257.04C362.45,257.05 364.47,257.62 365.67,258.29C367.67,259.41 391.78,281.14 438.49,323.91C469.26,352.1 490.58,371.93 529.96,409.01C572.73,449.27 575.99,452.2 576.48,450.86C576.76,450.11 582.35,433.52 588.9,414C626.5,301.95 636.08,274.45 638.12,272.75C640.81,270.51 643.2,270.53 646.03,272.83C647.27,273.83 660.26,298.5 674.89,327.64C731.01,439.4 745.52,467.98 746.15,467.99C746.77,468 776.09,425.52 816.7,365.75C827.26,350.21 837.04,336.52 838.43,335.31C839.82,334.11 842.88,332.89 845.23,332.59C860.99,330.62 903.67,326.95 905.51,327.41C906.75,327.72 910.21,331.02 913.2,334.74C926.74,351.56 970.81,409.82 971.4,411.69C972.35,414.68 970.2,418.67 966.91,420.04C964.63,420.98 963.22,420.91 959.79,419.67C898.41,397.65 888.44,394.27 887.85,395.33C887.5,395.97 882.41,410 876.54,426.5C870.67,443 864.96,458.98 863.85,462C857.2,480.09 801.69,637.01 793.8,660C786.61,680.95 784.66,684.53 778.8,687.59C776.51,688.78 755.34,689 640.98,689L505.85,689L497.67,681.25ZM760.33,671.6C759.33,670.28 750.17,658.93 740,646.37C706.27,604.76 686.78,580.59 681.11,573.32C678.02,569.37 675.22,566.1 674.88,566.07C674.24,566 650.09,582.93 597.5,620.34C580.45,632.46 557.05,649.11 545.5,657.32C533.95,665.54 524.07,672.65 523.55,673.13C523.01,673.62 574.33,674 642.38,674L762.17,674L760.33,671.6ZM784.8,642.5C789.24,629.85 804.42,586.88 818.53,547C832.63,507.12 851.3,454.25 860.01,429.5C868.71,404.75 879.08,375.36 883.03,364.2C886.99,353.03 889.97,343.64 889.65,343.32C888.91,342.57 848.71,346.88 847.85,347.8C847.12,348.58 836.08,364.62 783.67,441C739.61,505.23 701.51,560.4 698.24,564.72C696.91,566.49 695.97,568.36 696.16,568.88C696.47,569.74 715.37,593.26 724,603.53C725.92,605.82 738.3,621.01 751.5,637.29C764.7,653.57 775.77,666.58 776.11,666.2C776.44,665.81 780.35,655.15 784.8,642.5ZM522.75,655.68C529.25,651.1 549.85,636.39 568.53,623C587.22,609.61 615.55,589.32 631.5,577.91C647.45,566.5 661.33,556.54 662.34,555.78C664.42,554.21 666.63,556.53 631.5,523.38C595.64,489.54 451,355.44 430.47,337C424.15,331.32 395.5,305.01 381.75,292.27C379.14,289.85 377,288.31 377,288.86C377,289.41 381.77,303.28 387.59,319.68C393.42,336.08 399.67,353.77 401.47,359C404.5,367.76 428.22,433.99 434.96,452.5C436.57,456.9 440.41,467.7 443.5,476.5C446.59,485.3 452.45,501.73 456.52,513C470.86,552.75 492.31,612.8 501.26,638.25C506.23,652.41 510.45,664 510.62,664C510.79,664 516.25,660.25 522.75,655.68ZM486.34,639.75C483.37,631.36 474.85,607.37 467.41,586.43L453.86,548.36L402.18,529.48C331.2,503.56 315.87,498.13 316.21,499.07C316.37,499.51 327.98,509.86 342,522.06C374.51,550.33 419.65,590.27 445.93,614C478.75,643.64 491.39,655 491.57,655C491.65,655 489.3,648.14 486.34,639.75ZM736,482.92C736,481.84 650.87,312.24 646.22,304.06C643.73,299.69 643.67,299.65 642.74,302.06C641.01,306.48 621.09,363.63 603.88,413.5L586.97,462.5L591.23,466.46C593.58,468.64 611.02,485.09 630,503.03C648.98,520.96 669.43,540.15 675.46,545.66L686.42,555.68L711.21,519.84C724.84,500.12 736,483.51 736,482.92ZM936.81,388.21C920.52,367.06 905.49,348.08 905,348.05C903.97,347.97 893.58,380.36 894.52,380.72C897.21,381.74 944.54,398.89 944.81,398.94C944.98,398.97 941.38,394.14 936.81,388.21Z"/>
  </svg>
  <!-- wordmark: JPMethod -->
  <svg x="315" y="92" width="575" height="118" viewBox="150 740 972 230" preserveAspectRatio="xMidYMid meet">
    <path d="M202.79,962.45C183.88,957.86 167.17,942.26 158.16,920.78C154.55,912.19 154.41,902.32 157.84,898.67C160.95,895.36 164.24,894.65 168.41,896.4C172.54,898.12 173.83,900.33 175.57,908.68C178.4,922.17 187.64,934.24 199.72,940.18C205.84,943.2 207.28,943.5 215.48,943.5C223.31,943.5 225.24,943.14 230.14,940.73C240.74,935.52 248.27,924.36 251.53,909C255.95,888.19 253.84,845.39 245.69,791L244.42,782.5L237.72,782.72C234.03,782.84 225.12,783.89 217.91,785.05C203.16,787.43 200.06,786.96 197.45,781.91C194.45,776.09 196.94,770.16 203.27,768.08C214.15,764.51 282.39,757.14 290.23,758.68C296.74,759.97 299.73,766.76 296.52,772.97C294.58,776.71 291.14,777.68 277,778.48C270.68,778.83 265.23,779.44 264.9,779.81C264.58,780.19 265.55,789.5 267.08,800.5C272.7,841.07 274.81,885.89 272.05,905.78C269.59,923.45 263.08,937.93 253.01,948.12C239.8,961.49 220.98,966.86 202.79,962.45Z"/>
    <path d="M331.1,959.76C329.77,959.07 327.78,957.27 326.66,955.77C324.72,953.14 324.6,951.07 323.87,904.77C323.45,878.22 322.59,839.66 321.96,819.08L320.82,781.67L317.91,778.76C312.64,773.49 314.64,765.3 322.15,761.42C329.37,757.69 342.87,755.67 360.5,755.68C375.59,755.7 378.59,755.99 387.24,758.29C410.87,764.57 426.84,778.72 432.52,798.39C434.57,805.49 434.14,820.73 431.66,828.5C427.27,842.27 413.49,856.86 396.76,865.45C383.02,872.49 361.74,877.99 348.16,878L342.83,878L344.23,954.5L341.37,957.18C337.81,960.5 334.23,961.4 331.1,959.76ZM357.3,857.51C383.59,853.55 403.43,842.02 411.23,826.18C414.13,820.3 414.49,818.62 414.44,811.52C414.4,805.16 413.88,802.46 411.97,798.5C403.81,781.65 379.92,772.34 351.7,775.03C346.15,775.56 341.31,776.33 340.95,776.74C340.58,777.16 340.63,787.85 341.06,800.5C341.49,813.15 341.93,831.15 342.04,840.5C342.15,849.85 342.43,857.84 342.68,858.25C343.31,859.33 346.23,859.18 357.3,857.51Z"/>
    <path d="M619.31,957.99C615.96,956.64 613.96,952.8 612.98,945.83C609.64,922.23 606.42,877.33 604.99,834.5C604.4,816.9 603.82,801.71 603.71,800.73C603.42,798.3 594.43,812.12 573.81,846.67C564.35,862.53 555.41,876.7 553.95,878.18C550.27,881.89 544.97,882.75 540.77,880.3C536.78,877.98 534.99,875.04 512.52,834C502.74,816.12 494.17,800.69 493.49,799.7C492.39,798.11 492.17,798.4 491.62,802.2C490.64,809.05 485.26,885.68 483.5,918C482.61,934.23 481.67,948.55 481.4,949.84C480.05,956.36 470.94,959.39 466.13,954.9C461.47,950.56 461.46,952.63 466.53,874.5C470.83,808.2 474.08,768.74 475.52,765.3C477.43,760.73 482.48,757.77 487.35,758.37C491.96,758.93 495.13,761.7 498.87,768.46C500.4,771.23 507.28,783.62 514.17,796C521.05,808.38 531.08,826.51 536.45,836.3C541.83,846.1 546.35,853.97 546.5,853.8C546.65,853.64 553.2,842.7 561.06,829.5C587.75,784.68 601.69,764.2 607,762C610.33,760.62 616.33,761.2 618.66,763.13C622.94,766.68 623.18,768.76 624.07,809.36C625.33,866.66 627.8,908.17 631.54,934.92C633.7,950.32 633.54,952.62 630.08,956.08C627.05,959.1 623.59,959.72 619.31,957.99Z"/>
    <path d="M691.5,948.35C681.07,946.79 672.39,942.19 664.76,934.18C654.6,923.54 650,910.38 650,892C650,867.12 660.57,846.81 677.72,838.73C683.61,835.96 685.56,835.54 692.5,835.56C701.89,835.59 707.39,837.65 714.03,843.64C722.38,851.17 727.21,864.15 723.33,875.54C718.78,888.89 697.45,897.93 676.2,897.98L668.91,898L669.59,901.75C671.52,912.4 678.13,922.95 685.15,926.58C690.49,929.34 697.52,930.24 703.72,928.96C712.04,927.24 718.3,923.73 726.09,916.42C731.89,910.97 733.47,910 736.54,910C739.2,910 740.92,910.77 743.08,912.92C748.16,918 746.76,922.98 737.83,931.69C731.24,938.11 722.42,943.48 714.38,945.96C707.99,947.94 696.64,949.12 691.5,948.35ZM695.21,877.06C705.45,873.17 708.91,865.61 703.44,859.11C698.91,853.73 687.76,852.96 681.03,858.63C677.28,861.79 673.27,868.46 671.41,874.65L670.01,879.28L678.76,878.75C684.15,878.43 691.69,878.39 695.21,877.06Z"/>
    <path d="M784.23,952.45C780.93,950.14 780.28,948.37 778.11,935.9C775.46,920.62 773.33,901.74 771.48,877.05C770.63,865.81 769.81,856.48 769.65,856.32C769.5,856.16 765.35,856.7 760.43,857.5C747.34,859.65 745.34,859.49 741.92,856.08C738.11,852.26 738.05,848.09 741.75,843.97C744.26,841.17 745.53,840.74 756.5,838.97C763.1,837.91 768.61,837.03 768.75,837.02C768.89,837.01 768.71,820.39 768.34,800.09C767.61,759.57 767.76,758.21 773.26,755.36C777.14,753.36 781.96,754.27 785.09,757.59L787.5,760.16L787.8,797.2L788.09,834.24L791.8,833.67C814.48,830.18 817.01,830.32 820.03,835.28C822.82,839.86 822.49,842.71 818.75,846.45C815.76,849.43 814.7,849.79 805.5,850.9C788.62,852.94 789,852.81 789,856.17C789,870.28 794.06,918.86 797,933C799.66,945.82 799.57,947.58 796.08,951.08C792.74,954.42 787.85,954.98 784.23,952.45Z"/>
    <path d="M844.01,945.3C841.1,942.7 840.64,941.56 839.87,934.94C838.65,924.55 837.58,799.92 838.49,774.52L839.23,753.61L842.04,750.81C845.81,747.03 851.97,746.87 855.55,750.46L858,752.91L857.41,809.71L856.82,866.5L859.65,863C868.09,852.6 875.27,848.59 885.5,848.57C893.96,848.56 899.01,850.86 904.45,857.22C914.6,869.07 919.62,890.54 920.08,924C920.31,940.66 920.35,940.33 917.55,943.35C915.77,945.27 914.11,946 911.48,946C902.49,946 901.39,943.29 900.71,919.5C900.09,897.66 898.16,885.15 894.05,876.33C889.28,866.09 884.31,864.75 877.25,871.82C873.28,875.78 867.13,888.33 864.65,897.54C862.25,906.4 860.01,922.44 860.01,930.78C860,941.92 857.44,946.57 850.73,947.66C847.88,948.12 846.7,947.71 844.01,945.3Z"/>
    <path d="M961.9,942C948,939.61 936.11,927.88 932.27,909.22C929.02,893.43 933.91,872.72 943.77,860.48C953.34,848.6 970.27,845.37 983.8,851.48C1005.11,861.09 1013.69,894.64 1001.45,920.52C994.28,935.67 976.77,944.55 961.9,942ZM972.34,922.63C977.02,920.68 984.46,913.85 986.49,907.4C989.12,899.05 988.26,885.25 984.7,878.31C981.24,871.6 976.29,867.78 970.86,867.64C967.22,867.54 962.31,868.02 959,871.75C953.07,878.43 950.5,886.54 950.5,898.57C950.5,907.8 950.75,909.13 953.5,914.46C955.58,918.49 959.57,920.86 961.98,922.14C966.14,924.36 967.99,924.45 972.34,922.63Z"/>
    <path d="M1099.5,946.09C1095.78,944.5 1093.8,941.15 1090.59,930.98L1087.38,920.84L1084.54,924.94C1080.29,931.08 1074.51,935.86 1067.12,939.36C1061.15,942.19 1059.57,942.5 1051,942.5C1042.64,942.5 1040.82,942.17 1035.84,939.72C1029.03,936.37 1023.68,930.71 1020.18,923.12C1018.11,918.65 1017.5,915.55 1017.18,907.93C1016.69,896.2 1018.08,889.11 1022.66,879.95C1033.56,858.16 1055.1,848.43 1075.44,856.09C1078.16,857.11 1080.63,857.7 1080.94,857.39C1081.25,857.09 1081.55,833.58 1081.6,805.17C1081.66,776.75 1081.99,752.58 1082.35,751.47C1083.16,748.92 1087.98,746 1091.39,746C1092.83,746 1095.41,747.29 1097.23,748.92L1100.5,751.84L1101.04,769.67C1101.34,779.48 1101.34,803.92 1101.04,824C1100.17,882.56 1101.52,900.28 1108.6,923.74C1110.47,929.92 1112,936.31 1112,937.93C1112,943.7 1104.84,948.38 1099.5,946.09ZM1059.62,921.94C1067.81,917.98 1074.17,908.59 1077.97,894.86C1080.74,884.88 1080.61,881.95 1077.25,878.75C1073.51,875.18 1066.3,872.05 1061.74,872.02C1053.67,871.97 1043.08,880.04 1038.96,889.36C1034.77,898.82 1034.79,910.69 1039,917.5C1042.94,923.87 1051.72,925.76 1059.62,921.94Z"/>
  </svg>
</svg>
